<svg width="120" height="206" viewBox="0 0 120 206" fill="none" xmlns="http://www.w3.org/2000/svg">
<mask id="mask0_5_5" style="mask-type:alpha" maskUnits="userSpaceOnUse" x="10" y="10" width="100" height="186">
<path d="M60 10L110 103L60 196L10 103L60 10Z" fill="#fff"/>
</mask>
<g mask="url(#mask0_5_5)">
<line x1="1.5" y1="14.5" x2="117.5" y2="14.5" stroke="#000"/>
<line x1="1.5" y1="22.5" x2="117.5" y2="22.5" stroke="#000"/>
<line x1="1.5" y1="30.5" x2="117.5" y2="30.5" stroke="#000"/>
<line x1="1.5" y1="38.5" x2="117.5" y2="38.5" stroke="#000"/>
<line x1="1.5" y1="46.5" x2="117.5" y2="46.5" stroke="#000"/>
<line x1="1.5" y1="54.5" x2="117.5" y2="54.5" stroke="#000"/>
<line x1="1.5" y1="62.5" x2="117.5" y2="62.5" stroke="#000"/>
<line x1="1.5" y1="70.5" x2="117.5" y2="70.5" stroke="#000"/>
<line x1="1.5" y1="78.5" x2="117.5" y2="78.5" stroke="#000"/>
<line x1="1.5" y1="86.5" x2="117.5" y2="86.5" stroke="#000"/>
<line x1="1.5" y1="94.5" x2="117.5" y2="94.5" stroke="#000"/>
<line x1="1.5" y1="102.5" x2="117.5" y2="102.5" stroke="#000"/>
<line x1="1.5" y1="110.5" x2="117.5" y2="110.5" stroke="#000"/>
<line x1="1.5" y1="118.5" x2="117.5" y2="118.5" stroke="#000"/>
<line x1="1.5" y1="126.5" x2="117.5" y2="126.5" stroke="#000"/>
<line x1="1.5" y1="134.5" x2="117.5" y2="134.5" stroke="#000"/>
<line x1="1.5" y1="142.5" x2="117.5" y2="142.5" stroke="#000"/>
<line x1="1.5" y1="150.5" x2="117.5" y2="150.5" stroke="#000"/>
<line x1="1.5" y1="158.5" x2="117.5" y2="158.5" stroke="#000"/>
<line x1="1.5" y1="166.5" x2="117.5" y2="166.5" stroke="#000"/>
<line x1="1.5" y1="174.5" x2="117.5" y2="174.5" stroke="#000"/>
<line x1="1.5" y1="182.5" x2="117.5" y2="182.5" stroke="#000"/>
<line x1="1.5" y1="190.5" x2="117.5" y2="190.5" stroke="#000"/>
</g>
</svg>
