<svg width="115" height="210" viewBox="0 0 115 210" fill="none" xmlns="http://www.w3.org/2000/svg">
<mask id="mask0_5_4" style="mask-type:alpha" maskUnits="userSpaceOnUse" x="10" y="10" width="95" height="190">
<rect x="10" y="10" width="95" height="190" rx="47.5" fill="#fff"/>
</mask>
<g mask="url(#mask0_5_4)">
<line x1="-2" y1="17.5" x2="118" y2="17.5" stroke="#000"/>
<line x1="-2" y1="25.5" x2="118" y2="25.5" stroke="#000"/>
<line x1="-2" y1="33.5" x2="118" y2="33.5" stroke="#000"/>
<line x1="-2" y1="41.5" x2="118" y2="41.5" stroke="#000"/>
<line x1="-2" y1="49.5" x2="118" y2="49.5" stroke="#000"/>
<line x1="-2" y1="57.5" x2="118" y2="57.5" stroke="#000"/>
<line x1="-2" y1="65.5" x2="118" y2="65.5" stroke="#000"/>
<line x1="-2" y1="73.5" x2="118" y2="73.5" stroke="#000"/>
<line x1="-2" y1="81.5" x2="118" y2="81.5" stroke="#000"/>
<line x1="-2" y1="89.5" x2="118" y2="89.5" stroke="#000"/>
<line x1="-2" y1="97.5" x2="118" y2="97.5" stroke="#000"/>
<line x1="-2" y1="105.5" x2="118" y2="105.5" stroke="#000"/>
<line x1="-2" y1="113.5" x2="118" y2="113.5" stroke="#000"/>
<line x1="-2" y1="121.5" x2="118" y2="121.5" stroke="#000"/>
<line x1="-2" y1="129.5" x2="118" y2="129.5" stroke="#000"/>
<line x1="-2" y1="137.5" x2="118" y2="137.5" stroke="#000"/>
<line x1="-2" y1="145.5" x2="118" y2="145.5" stroke="#000"/>
<line x1="-2" y1="153.5" x2="118" y2="153.5" stroke="#000"/>
<line x1="-2" y1="161.5" x2="118" y2="161.5" stroke="#000"/>
<line x1="-2" y1="169.5" x2="118" y2="169.5" stroke="#000"/>
<line x1="-2" y1="177.5" x2="118" y2="177.5" stroke="#000"/>
<line x1="-2" y1="185.5" x2="118" y2="185.5" stroke="#000"/>
<line x1="-2" y1="193.5" x2="118" y2="193.5" stroke="#000"/>
</g>
</svg>
